<mxfile host="app.diagrams.net" modified="2021-05-04T20:57:29.808Z" agent="5.0 (Windows NT 10.0; Win64; x64) AppleWebKit/537.36 (KHTML, like Gecko) Chrome/88.0.4324.150 Safari/537.36" etag="ZiWpekqx49gPxoi746_i" version="14.6.9" type="github">
  <diagram name="Aclaraciones" id="WpifIdnLGx_NhHcsi4cL">
    <mxGraphModel dx="3047" dy="820" grid="1" gridSize="10" guides="1" tooltips="1" connect="1" arrows="1" fold="1" page="1" pageScale="1" pageWidth="1600" pageHeight="900" background="none" math="0" shadow="1">
      <root>
        <object label="" Responsable="Fredy GarcÃ­a" Area="Arquitectura de Datos" id="WX7YUZVSeFiS0MbdlwwC-0">
          <mxCell />
        </object>
        <mxCell id="WX7YUZVSeFiS0MbdlwwC-1" parent="WX7YUZVSeFiS0MbdlwwC-0" />
        <mxCell id="wqD8rI8rCarVI1WPucD0-0" value="BIZ - QUEJAS" style="shape=image;html=1;verticalAlign=top;verticalLabelPosition=bottom;labelBackgroundColor=none;imageAspect=0;aspect=fixed;image=https://cdn1.iconfinder.com/data/icons/business-488/128/17-128.png;strokeWidth=1;fillColor=#FFFF00;labelPosition=center;align=center;fontFamily=Verdana;sketch=0;fillOpacity=100;" parent="WX7YUZVSeFiS0MbdlwwC-1" vertex="1">
          <mxGeometry x="-1178.8200000000002" y="200" width="50" height="50" as="geometry" />
        </mxCell>
        <mxCell id="wqD8rI8rCarVI1WPucD0-15" value="BIZ - TRANSFERENCIAS" style="shape=image;html=1;verticalAlign=top;verticalLabelPosition=bottom;labelBackgroundColor=none;imageAspect=0;aspect=fixed;image=https://cdn1.iconfinder.com/data/icons/business-488/128/17-128.png;strokeWidth=1;fillColor=#FFFF00;labelPosition=center;align=center;fontFamily=Verdana;sketch=0;fillOpacity=100;" parent="WX7YUZVSeFiS0MbdlwwC-1" vertex="1">
          <mxGeometry x="-855" y="130" width="50" height="50" as="geometry" />
        </mxCell>
        <mxCell id="wqD8rI8rCarVI1WPucD0-16" value="&lt;div&gt;BIZ - SERV.&lt;/div&gt;&lt;div&gt;BANCARIOS&lt;br&gt;&lt;/div&gt;" style="shape=image;html=1;verticalAlign=top;verticalLabelPosition=bottom;labelBackgroundColor=none;imageAspect=0;aspect=fixed;image=https://cdn1.iconfinder.com/data/icons/business-488/128/17-128.png;strokeWidth=1;fillColor=#FFFF00;labelPosition=center;align=center;fontFamily=Verdana;sketch=0;fillOpacity=100;" parent="WX7YUZVSeFiS0MbdlwwC-1" vertex="1">
          <mxGeometry x="-1208.87" y="545" width="50" height="50" as="geometry" />
        </mxCell>
        <mxCell id="wqD8rI8rCarVI1WPucD0-17" value="BIZ - CREDITO" style="shape=image;html=1;verticalAlign=top;verticalLabelPosition=bottom;labelBackgroundColor=none;imageAspect=0;aspect=fixed;image=https://cdn1.iconfinder.com/data/icons/business-488/128/17-128.png;strokeWidth=1;fillColor=#FFFF00;labelPosition=center;align=center;fontFamily=Verdana;sketch=0;fillOpacity=100;" parent="WX7YUZVSeFiS0MbdlwwC-1" vertex="1">
          <mxGeometry x="-224.43" y="330" width="50" height="50" as="geometry" />
        </mxCell>
        <mxCell id="wqD8rI8rCarVI1WPucD0-18" value="BIZ - TDC" style="shape=image;html=1;verticalAlign=top;verticalLabelPosition=bottom;labelBackgroundColor=none;imageAspect=0;aspect=fixed;image=https://cdn1.iconfinder.com/data/icons/business-488/128/17-128.png;strokeWidth=1;fillColor=#FFFF00;labelPosition=center;align=center;fontFamily=Verdana;sketch=0;fillOpacity=100;" parent="WX7YUZVSeFiS0MbdlwwC-1" vertex="1">
          <mxGeometry x="-440" y="130" width="50" height="50" as="geometry" />
        </mxCell>
        <mxCell id="wqD8rI8rCarVI1WPucD0-19" value="BIZ - ATM" style="shape=image;html=1;verticalAlign=top;verticalLabelPosition=bottom;labelBackgroundColor=none;imageAspect=0;aspect=fixed;image=https://cdn1.iconfinder.com/data/icons/business-488/128/17-128.png;strokeWidth=1;fillColor=#FFFF00;labelPosition=center;align=center;fontFamily=Verdana;sketch=0;fillOpacity=100;" parent="WX7YUZVSeFiS0MbdlwwC-1" vertex="1">
          <mxGeometry x="-320" y="650" width="50" height="50" as="geometry" />
        </mxCell>
        <mxCell id="wqD8rI8rCarVI1WPucD0-20" value="&lt;div&gt;BIZ - TDD Y&lt;/div&gt;&lt;div&gt;CONTRACARGOS&lt;br&gt;&lt;/div&gt;" style="shape=image;html=1;verticalAlign=top;verticalLabelPosition=bottom;labelBackgroundColor=none;imageAspect=0;aspect=fixed;image=https://cdn1.iconfinder.com/data/icons/business-488/128/17-128.png;strokeWidth=1;fillColor=#FFFF00;labelPosition=center;align=center;fontFamily=Verdana;sketch=0;fillOpacity=100;" parent="WX7YUZVSeFiS0MbdlwwC-1" vertex="1">
          <mxGeometry x="-690" y="690" width="50" height="50" as="geometry" />
        </mxCell>
        <mxCell id="KDHZRwQ5EwGC6bNFkQ5K-7" style="edgeStyle=orthogonalEdgeStyle;rounded=0;orthogonalLoop=1;jettySize=auto;html=1;" edge="1" parent="WX7YUZVSeFiS0MbdlwwC-1" source="KDHZRwQ5EwGC6bNFkQ5K-14" target="wqD8rI8rCarVI1WPucD0-16">
          <mxGeometry relative="1" as="geometry" />
        </mxCell>
        <mxCell id="KDHZRwQ5EwGC6bNFkQ5K-8" style="edgeStyle=orthogonalEdgeStyle;rounded=0;orthogonalLoop=1;jettySize=auto;html=1;" edge="1" parent="WX7YUZVSeFiS0MbdlwwC-1" source="KDHZRwQ5EwGC6bNFkQ5K-14" target="wqD8rI8rCarVI1WPucD0-0">
          <mxGeometry relative="1" as="geometry">
            <Array as="points">
              <mxPoint x="-525" y="300" />
              <mxPoint x="-960" y="300" />
              <mxPoint x="-960" y="215" />
            </Array>
          </mxGeometry>
        </mxCell>
        <mxCell id="KDHZRwQ5EwGC6bNFkQ5K-9" style="edgeStyle=orthogonalEdgeStyle;rounded=0;orthogonalLoop=1;jettySize=auto;html=1;" edge="1" parent="WX7YUZVSeFiS0MbdlwwC-1" source="KDHZRwQ5EwGC6bNFkQ5K-14" target="wqD8rI8rCarVI1WPucD0-15">
          <mxGeometry relative="1" as="geometry">
            <Array as="points">
              <mxPoint x="-525" y="155" />
            </Array>
          </mxGeometry>
        </mxCell>
        <mxCell id="KDHZRwQ5EwGC6bNFkQ5K-10" style="edgeStyle=orthogonalEdgeStyle;rounded=0;orthogonalLoop=1;jettySize=auto;html=1;" edge="1" parent="WX7YUZVSeFiS0MbdlwwC-1" source="KDHZRwQ5EwGC6bNFkQ5K-14" target="wqD8rI8rCarVI1WPucD0-17">
          <mxGeometry relative="1" as="geometry" />
        </mxCell>
        <mxCell id="KDHZRwQ5EwGC6bNFkQ5K-11" style="edgeStyle=orthogonalEdgeStyle;rounded=0;orthogonalLoop=1;jettySize=auto;html=1;" edge="1" parent="WX7YUZVSeFiS0MbdlwwC-1" source="KDHZRwQ5EwGC6bNFkQ5K-14" target="wqD8rI8rCarVI1WPucD0-18">
          <mxGeometry relative="1" as="geometry">
            <Array as="points">
              <mxPoint x="-525" y="270" />
              <mxPoint x="-415" y="270" />
            </Array>
          </mxGeometry>
        </mxCell>
        <mxCell id="KDHZRwQ5EwGC6bNFkQ5K-12" style="edgeStyle=orthogonalEdgeStyle;rounded=0;orthogonalLoop=1;jettySize=auto;html=1;" edge="1" parent="WX7YUZVSeFiS0MbdlwwC-1" source="KDHZRwQ5EwGC6bNFkQ5K-14" target="wqD8rI8rCarVI1WPucD0-19">
          <mxGeometry relative="1" as="geometry" />
        </mxCell>
        <mxCell id="KDHZRwQ5EwGC6bNFkQ5K-13" style="edgeStyle=orthogonalEdgeStyle;rounded=0;orthogonalLoop=1;jettySize=auto;html=1;" edge="1" parent="WX7YUZVSeFiS0MbdlwwC-1" source="KDHZRwQ5EwGC6bNFkQ5K-14" target="wqD8rI8rCarVI1WPucD0-20">
          <mxGeometry relative="1" as="geometry">
            <Array as="points">
              <mxPoint x="-525" y="715" />
            </Array>
          </mxGeometry>
        </mxCell>
        <mxCell id="rXXVgOSMdEK5IrgQu4zc-0" value="SYS - SIA" style="outlineConnect=0;dashed=0;verticalLabelPosition=bottom;verticalAlign=top;align=center;html=1;shape=mxgraph.aws3.elastic_transcoder;fillColor=#f0a30a;aspect=fixed;strokeColor=#BD7000;labelBackgroundColor=none;fontFamily=Verdana;labelPosition=center;fontSize=12;" parent="WX7YUZVSeFiS0MbdlwwC-1" vertex="1">
          <mxGeometry x="-219.99999999999955" y="650" width="41.13" height="50" as="geometry" />
        </mxCell>
        <mxCell id="uyR7RlpGtDxavyftbmQB-0" value="SYS - ALTAMIRA" style="outlineConnect=0;dashed=0;verticalLabelPosition=bottom;verticalAlign=top;align=center;html=1;shape=mxgraph.aws3.elastic_transcoder;fillColor=#f0a30a;aspect=fixed;strokeColor=#BD7000;labelBackgroundColor=none;fontFamily=Verdana;" parent="WX7YUZVSeFiS0MbdlwwC-1" vertex="1">
          <mxGeometry x="-1241.13" y="780" width="41.13" height="50" as="geometry" />
        </mxCell>
        <mxCell id="LK36yIlWEkRcecPkf2nr-0" value="SYS - UNIFACE" style="outlineConnect=0;dashed=0;verticalLabelPosition=bottom;verticalAlign=top;align=center;html=1;shape=mxgraph.aws3.elastic_transcoder;fillColor=#f0a30a;aspect=fixed;strokeColor=#BD7000;labelBackgroundColor=none;fontFamily=Verdana;labelPosition=center;fontSize=12;" parent="WX7YUZVSeFiS0MbdlwwC-1" vertex="1">
          <mxGeometry x="-1430" y="180" width="41.13" height="50" as="geometry" />
        </mxCell>
        <mxCell id="KDHZRwQ5EwGC6bNFkQ5K-15" style="edgeStyle=orthogonalEdgeStyle;rounded=0;orthogonalLoop=1;jettySize=auto;html=1;" edge="1" parent="WX7YUZVSeFiS0MbdlwwC-1" source="KDHZRwQ5EwGC6bNFkQ5K-21" target="wqD8rI8rCarVI1WPucD0-18">
          <mxGeometry relative="1" as="geometry">
            <Array as="points">
              <mxPoint x="-760" y="240" />
              <mxPoint x="-480" y="240" />
              <mxPoint x="-480" y="155" />
            </Array>
          </mxGeometry>
        </mxCell>
        <mxCell id="KDHZRwQ5EwGC6bNFkQ5K-16" style="edgeStyle=orthogonalEdgeStyle;rounded=0;orthogonalLoop=1;jettySize=auto;html=1;" edge="1" parent="WX7YUZVSeFiS0MbdlwwC-1" source="KDHZRwQ5EwGC6bNFkQ5K-21" target="wqD8rI8rCarVI1WPucD0-15">
          <mxGeometry relative="1" as="geometry" />
        </mxCell>
        <mxCell id="KDHZRwQ5EwGC6bNFkQ5K-17" style="edgeStyle=orthogonalEdgeStyle;rounded=0;orthogonalLoop=1;jettySize=auto;html=1;" edge="1" parent="WX7YUZVSeFiS0MbdlwwC-1" source="KDHZRwQ5EwGC6bNFkQ5K-21" target="wqD8rI8rCarVI1WPucD0-0">
          <mxGeometry relative="1" as="geometry" />
        </mxCell>
        <mxCell id="KDHZRwQ5EwGC6bNFkQ5K-18" style="edgeStyle=orthogonalEdgeStyle;rounded=0;orthogonalLoop=1;jettySize=auto;html=1;" edge="1" parent="WX7YUZVSeFiS0MbdlwwC-1" source="KDHZRwQ5EwGC6bNFkQ5K-21" target="wqD8rI8rCarVI1WPucD0-16">
          <mxGeometry relative="1" as="geometry">
            <Array as="points">
              <mxPoint x="-990" y="575" />
              <mxPoint x="-990" y="575" />
            </Array>
          </mxGeometry>
        </mxCell>
        <mxCell id="KDHZRwQ5EwGC6bNFkQ5K-19" style="edgeStyle=orthogonalEdgeStyle;rounded=0;orthogonalLoop=1;jettySize=auto;html=1;" edge="1" parent="WX7YUZVSeFiS0MbdlwwC-1" source="KDHZRwQ5EwGC6bNFkQ5K-21" target="wqD8rI8rCarVI1WPucD0-20">
          <mxGeometry relative="1" as="geometry">
            <Array as="points">
              <mxPoint x="-830" y="650" />
              <mxPoint x="-665" y="650" />
            </Array>
          </mxGeometry>
        </mxCell>
        <mxCell id="KDHZRwQ5EwGC6bNFkQ5K-20" style="edgeStyle=orthogonalEdgeStyle;rounded=0;orthogonalLoop=1;jettySize=auto;html=1;" edge="1" parent="WX7YUZVSeFiS0MbdlwwC-1" source="KDHZRwQ5EwGC6bNFkQ5K-21" target="wqD8rI8rCarVI1WPucD0-19">
          <mxGeometry relative="1" as="geometry" />
        </mxCell>
        <mxCell id="0ebwkZJaevnyOPmftaoM-0" value="REP -JUPITER" style="html=1;verticalLabelPosition=bottom;align=center;verticalAlign=top;strokeWidth=3;shadow=0;dashed=0;shape=mxgraph.ios7.icons.data;aspect=fixed;labelBackgroundColor=#F1FAEE;fillColor=#000000;strokeColor=#FFFFFF;fontColor=#1D3557;" parent="WX7YUZVSeFiS0MbdlwwC-1" vertex="1">
          <mxGeometry x="-1220.05" y="90" width="41.23" height="50" as="geometry" />
        </mxCell>
        <mxCell id="0ebwkZJaevnyOPmftaoM-1" value="&lt;div&gt;SYS - TECLEOS 390&lt;/div&gt;" style="outlineConnect=0;dashed=0;verticalLabelPosition=bottom;verticalAlign=top;align=center;html=1;shape=mxgraph.aws3.elastic_transcoder;fillColor=#f0a30a;aspect=fixed;strokeColor=#BD7000;labelBackgroundColor=none;fontFamily=Verdana;labelPosition=center;fontSize=12;" parent="WX7YUZVSeFiS0MbdlwwC-1" vertex="1">
          <mxGeometry x="-200" y="230" width="41.13" height="50" as="geometry" />
        </mxCell>
        <mxCell id="0ebwkZJaevnyOPmftaoM-2" value="SYS - TSYS" style="outlineConnect=0;dashed=0;verticalLabelPosition=bottom;verticalAlign=top;align=center;html=1;shape=mxgraph.aws3.elastic_transcoder;fillColor=#f0a30a;aspect=fixed;strokeColor=#BD7000;labelBackgroundColor=none;fontFamily=Verdana;labelPosition=center;fontSize=12;" parent="WX7YUZVSeFiS0MbdlwwC-1" vertex="1">
          <mxGeometry x="-800" y="50" width="41.13" height="50" as="geometry" />
        </mxCell>
        <mxCell id="0ebwkZJaevnyOPmftaoM-3" value="SYS - APP COLD" style="outlineConnect=0;dashed=0;verticalLabelPosition=bottom;verticalAlign=top;align=center;html=1;shape=mxgraph.aws3.elastic_transcoder;fillColor=#f0a30a;aspect=fixed;strokeColor=#BD7000;labelBackgroundColor=none;fontFamily=Verdana;labelPosition=center;fontSize=12;" parent="WX7YUZVSeFiS0MbdlwwC-1" vertex="1">
          <mxGeometry x="-340" y="240" width="41.13" height="50" as="geometry" />
        </mxCell>
        <mxCell id="0ebwkZJaevnyOPmftaoM-5" value="SYS - INTERNET" style="outlineConnect=0;dashed=0;verticalLabelPosition=bottom;verticalAlign=top;align=center;html=1;shape=mxgraph.aws3.elastic_transcoder;fillColor=#f0a30a;aspect=fixed;strokeColor=#BD7000;labelBackgroundColor=none;fontFamily=Verdana;labelPosition=center;fontSize=12;" parent="WX7YUZVSeFiS0MbdlwwC-1" vertex="1">
          <mxGeometry x="-1290" y="680" width="41.13" height="50" as="geometry" />
        </mxCell>
        <mxCell id="0ebwkZJaevnyOPmftaoM-6" value="SYS - NIP MANAGER" style="outlineConnect=0;dashed=0;verticalLabelPosition=bottom;verticalAlign=top;align=center;html=1;shape=mxgraph.aws3.elastic_transcoder;fillColor=#f0a30a;aspect=fixed;strokeColor=#BD7000;labelBackgroundColor=none;fontFamily=Verdana;labelPosition=center;fontSize=12;" parent="WX7YUZVSeFiS0MbdlwwC-1" vertex="1">
          <mxGeometry x="-340" y="20" width="41.13" height="50" as="geometry" />
        </mxCell>
        <mxCell id="0ebwkZJaevnyOPmftaoM-7" value="&lt;div&gt;SYS - CONNECT&lt;/div&gt;&lt;div&gt;INTERPRISE PROSA&lt;br&gt;&lt;/div&gt;" style="outlineConnect=0;dashed=0;verticalLabelPosition=bottom;verticalAlign=top;align=center;html=1;shape=mxgraph.aws3.elastic_transcoder;fillColor=#f0a30a;aspect=fixed;strokeColor=#BD7000;labelBackgroundColor=none;fontFamily=Verdana;labelPosition=center;fontSize=12;" parent="WX7YUZVSeFiS0MbdlwwC-1" vertex="1">
          <mxGeometry x="-1429.9999999999995" y="680" width="41.13" height="50" as="geometry" />
        </mxCell>
        <mxCell id="0ebwkZJaevnyOPmftaoM-8" value="SYS - TARJETAS WEB" style="outlineConnect=0;dashed=0;verticalLabelPosition=bottom;verticalAlign=top;align=center;html=1;shape=mxgraph.aws3.elastic_transcoder;fillColor=#f0a30a;aspect=fixed;strokeColor=#BD7000;labelBackgroundColor=none;fontFamily=Verdana;labelPosition=center;fontSize=12;" parent="WX7YUZVSeFiS0MbdlwwC-1" vertex="1">
          <mxGeometry x="-1370" y="40" width="41.13" height="50" as="geometry" />
        </mxCell>
        <mxCell id="0ebwkZJaevnyOPmftaoM-9" value="SYS - VFIRMAS" style="outlineConnect=0;dashed=0;verticalLabelPosition=bottom;verticalAlign=top;align=center;html=1;shape=mxgraph.aws3.elastic_transcoder;fillColor=#f0a30a;aspect=fixed;strokeColor=#BD7000;labelBackgroundColor=none;fontFamily=Verdana;labelPosition=center;fontSize=12;" parent="WX7YUZVSeFiS0MbdlwwC-1" vertex="1">
          <mxGeometry x="-220" y="90" width="41.13" height="50" as="geometry" />
        </mxCell>
        <mxCell id="ZYRqKu_oRuVf3wU_jfeI-0" value="&lt;div&gt;SYS - INTRANET&lt;/div&gt;&lt;div&gt;CORPORATIVA&lt;br&gt;&lt;/div&gt;" style="outlineConnect=0;dashed=0;verticalLabelPosition=bottom;verticalAlign=top;align=center;html=1;shape=mxgraph.aws3.elastic_transcoder;fillColor=#f0a30a;aspect=fixed;strokeColor=#BD7000;labelBackgroundColor=none;fontFamily=Verdana;labelPosition=center;fontSize=12;" parent="WX7YUZVSeFiS0MbdlwwC-1" vertex="1">
          <mxGeometry x="-339.99999999999955" y="720" width="41.13" height="50" as="geometry" />
        </mxCell>
        <mxCell id="ZYRqKu_oRuVf3wU_jfeI-1" value="&lt;font style=&quot;font-size: 12px&quot;&gt;&lt;span style=&quot;font-size: 12px&quot;&gt;SYS - DOMICILIACIONES&lt;/span&gt;&lt;/font&gt;" style="outlineConnect=0;dashed=0;verticalLabelPosition=bottom;verticalAlign=top;align=center;html=1;shape=mxgraph.aws3.elastic_transcoder;fillColor=#f0a30a;aspect=fixed;strokeColor=#BD7000;labelBackgroundColor=none;fontFamily=Verdana;labelPosition=center;fontSize=12;" parent="WX7YUZVSeFiS0MbdlwwC-1" vertex="1">
          <mxGeometry x="-1384.9999999999995" y="300" width="41.13" height="50" as="geometry" />
        </mxCell>
        <mxCell id="ZYRqKu_oRuVf3wU_jfeI-3" value="SYS - SAC PROSA" style="outlineConnect=0;dashed=0;verticalLabelPosition=bottom;verticalAlign=top;align=center;html=1;shape=mxgraph.aws3.elastic_transcoder;fillColor=#f0a30a;aspect=fixed;strokeColor=#BD7000;labelBackgroundColor=none;fontFamily=Verdana;labelPosition=center;fontSize=12;" parent="WX7YUZVSeFiS0MbdlwwC-1" vertex="1">
          <mxGeometry x="-800" y="750" width="41.13" height="50" as="geometry" />
        </mxCell>
        <mxCell id="ZYRqKu_oRuVf3wU_jfeI-5" value="&lt;div&gt;SYS - CID PROSA&lt;/div&gt;" style="outlineConnect=0;dashed=0;verticalLabelPosition=bottom;verticalAlign=top;align=center;html=1;shape=mxgraph.aws3.elastic_transcoder;fillColor=#f0a30a;aspect=fixed;strokeColor=#BD7000;labelBackgroundColor=none;fontFamily=Verdana;labelPosition=center;fontSize=12;" parent="WX7YUZVSeFiS0MbdlwwC-1" vertex="1">
          <mxGeometry x="-158.8699999999999" y="740" width="41.13" height="50" as="geometry" />
        </mxCell>
        <mxCell id="ZYRqKu_oRuVf3wU_jfeI-6" value="SYS - SETAWEB" style="outlineConnect=0;dashed=0;verticalLabelPosition=bottom;verticalAlign=top;align=center;html=1;shape=mxgraph.aws3.elastic_transcoder;fillColor=#f0a30a;aspect=fixed;strokeColor=#BD7000;labelBackgroundColor=none;fontFamily=Verdana;labelPosition=center;fontSize=12;" parent="WX7YUZVSeFiS0MbdlwwC-1" vertex="1">
          <mxGeometry x="-930" y="740" width="41.13" height="50" as="geometry" />
        </mxCell>
        <mxCell id="ZYRqKu_oRuVf3wU_jfeI-8" value="SYS - MULTIVENDOR" style="outlineConnect=0;dashed=0;verticalLabelPosition=bottom;verticalAlign=top;align=center;html=1;shape=mxgraph.aws3.elastic_transcoder;fillColor=#f0a30a;aspect=fixed;strokeColor=#BD7000;labelBackgroundColor=none;fontFamily=Verdana;labelPosition=center;fontSize=12;" parent="WX7YUZVSeFiS0MbdlwwC-1" vertex="1">
          <mxGeometry x="-500" y="730" width="41.13" height="50" as="geometry" />
        </mxCell>
        <mxCell id="80d_3vzHiP7VrFqBOew0-0" value="REP - ZEUS" style="html=1;verticalLabelPosition=bottom;align=center;verticalAlign=top;strokeWidth=3;shadow=0;dashed=0;shape=mxgraph.ios7.icons.data;aspect=fixed;labelBackgroundColor=#F1FAEE;fillColor=#000000;strokeColor=#FFFFFF;fontColor=#1D3557;" parent="WX7YUZVSeFiS0MbdlwwC-1" vertex="1">
          <mxGeometry x="-261.23" y="480" width="41.23" height="50" as="geometry" />
        </mxCell>
        <mxCell id="KDHZRwQ5EwGC6bNFkQ5K-24" style="edgeStyle=orthogonalEdgeStyle;rounded=0;orthogonalLoop=1;jettySize=auto;html=1;" edge="1" parent="WX7YUZVSeFiS0MbdlwwC-1" source="80d_3vzHiP7VrFqBOew0-1" target="wqD8rI8rCarVI1WPucD0-15">
          <mxGeometry relative="1" as="geometry" />
        </mxCell>
        <mxCell id="KDHZRwQ5EwGC6bNFkQ5K-25" style="edgeStyle=orthogonalEdgeStyle;rounded=0;orthogonalLoop=1;jettySize=auto;html=1;" edge="1" parent="WX7YUZVSeFiS0MbdlwwC-1" source="80d_3vzHiP7VrFqBOew0-1" target="wqD8rI8rCarVI1WPucD0-0">
          <mxGeometry relative="1" as="geometry" />
        </mxCell>
        <mxCell id="KDHZRwQ5EwGC6bNFkQ5K-26" style="edgeStyle=orthogonalEdgeStyle;rounded=0;orthogonalLoop=1;jettySize=auto;html=1;" edge="1" parent="WX7YUZVSeFiS0MbdlwwC-1" source="80d_3vzHiP7VrFqBOew0-1" target="wqD8rI8rCarVI1WPucD0-16">
          <mxGeometry relative="1" as="geometry" />
        </mxCell>
        <mxCell id="KDHZRwQ5EwGC6bNFkQ5K-27" style="edgeStyle=orthogonalEdgeStyle;rounded=0;orthogonalLoop=1;jettySize=auto;html=1;" edge="1" parent="WX7YUZVSeFiS0MbdlwwC-1" source="80d_3vzHiP7VrFqBOew0-1" target="wqD8rI8rCarVI1WPucD0-20">
          <mxGeometry relative="1" as="geometry">
            <Array as="points">
              <mxPoint x="-1049" y="715" />
            </Array>
          </mxGeometry>
        </mxCell>
        <mxCell id="KDHZRwQ5EwGC6bNFkQ5K-28" style="edgeStyle=orthogonalEdgeStyle;rounded=0;orthogonalLoop=1;jettySize=auto;html=1;" edge="1" parent="WX7YUZVSeFiS0MbdlwwC-1" source="80d_3vzHiP7VrFqBOew0-1" target="wqD8rI8rCarVI1WPucD0-19">
          <mxGeometry relative="1" as="geometry">
            <Array as="points">
              <mxPoint x="-1049" y="620" />
              <mxPoint x="-295" y="620" />
            </Array>
          </mxGeometry>
        </mxCell>
        <mxCell id="80d_3vzHiP7VrFqBOew0-1" value="SYS - SUPERNET MAS" style="outlineConnect=0;dashed=0;verticalLabelPosition=bottom;verticalAlign=top;align=center;html=1;shape=mxgraph.aws3.elastic_transcoder;fillColor=#f0a30a;aspect=fixed;strokeColor=#BD7000;labelBackgroundColor=none;fontFamily=Verdana;labelPosition=center;fontSize=12;" parent="WX7YUZVSeFiS0MbdlwwC-1" vertex="1">
          <mxGeometry x="-1069.9999999999995" y="400" width="41.13" height="50" as="geometry" />
        </mxCell>
        <mxCell id="80d_3vzHiP7VrFqBOew0-2" value="&lt;div&gt;SYS - FIRMAS&lt;/div&gt;&lt;div&gt;CORPORATIVAS&lt;br&gt;&lt;/div&gt;" style="outlineConnect=0;dashed=0;verticalLabelPosition=bottom;verticalAlign=top;align=center;html=1;shape=mxgraph.aws3.elastic_transcoder;fillColor=#f0a30a;aspect=fixed;strokeColor=#BD7000;labelBackgroundColor=none;fontFamily=Verdana;labelPosition=center;fontSize=12;" parent="WX7YUZVSeFiS0MbdlwwC-1" vertex="1">
          <mxGeometry x="-1051.13" y="760" width="41.13" height="50" as="geometry" />
        </mxCell>
        <mxCell id="80d_3vzHiP7VrFqBOew0-6" value="&lt;div&gt;SYS - BONIFICACIONES&lt;/div&gt;&lt;div&gt;WEB&lt;br&gt;&lt;/div&gt;" style="outlineConnect=0;dashed=0;verticalLabelPosition=bottom;verticalAlign=top;align=center;html=1;shape=mxgraph.aws3.elastic_transcoder;fillColor=#f0a30a;aspect=fixed;strokeColor=#BD7000;labelBackgroundColor=none;fontFamily=Verdana;labelPosition=center;fontSize=12;" parent="WX7YUZVSeFiS0MbdlwwC-1" vertex="1">
          <mxGeometry x="-1450" y="410" width="41.13" height="50" as="geometry" />
        </mxCell>
        <mxCell id="80d_3vzHiP7VrFqBOew0-7" value="SYS - EXPRESSO CAT" style="outlineConnect=0;dashed=0;verticalLabelPosition=bottom;verticalAlign=top;align=center;html=1;shape=mxgraph.aws3.elastic_transcoder;fillColor=#f0a30a;aspect=fixed;strokeColor=#BD7000;labelBackgroundColor=none;fontFamily=Verdana;labelPosition=center;fontSize=12;" parent="WX7YUZVSeFiS0MbdlwwC-1" vertex="1">
          <mxGeometry x="-1200" y="300" width="41.13" height="50" as="geometry" />
        </mxCell>
        <mxCell id="KDHZRwQ5EwGC6bNFkQ5K-0" value="SYS -CYBER" style="outlineConnect=0;dashed=0;verticalLabelPosition=bottom;verticalAlign=top;align=center;html=1;shape=mxgraph.aws3.elastic_transcoder;fillColor=#f0a30a;aspect=fixed;strokeColor=#BD7000;labelBackgroundColor=none;fontFamily=Verdana;labelPosition=center;fontSize=12;" vertex="1" parent="WX7YUZVSeFiS0MbdlwwC-1">
          <mxGeometry x="-960" y="20" width="41.13" height="50" as="geometry" />
        </mxCell>
        <mxCell id="KDHZRwQ5EwGC6bNFkQ5K-1" value="SYS- SWIFT" style="outlineConnect=0;dashed=0;verticalLabelPosition=bottom;verticalAlign=top;align=center;html=1;shape=mxgraph.aws3.elastic_transcoder;fillColor=#f0a30a;aspect=fixed;strokeColor=#BD7000;labelBackgroundColor=none;fontFamily=Verdana;labelPosition=center;fontSize=12;" vertex="1" parent="WX7YUZVSeFiS0MbdlwwC-1">
          <mxGeometry x="-150" y="490" width="41.13" height="50" as="geometry" />
        </mxCell>
        <mxCell id="KDHZRwQ5EwGC6bNFkQ5K-2" value="SYS - E-TRANSFER" style="outlineConnect=0;dashed=0;verticalLabelPosition=bottom;verticalAlign=top;align=center;html=1;shape=mxgraph.aws3.elastic_transcoder;fillColor=#f0a30a;aspect=fixed;strokeColor=#BD7000;labelBackgroundColor=none;fontFamily=Verdana;labelPosition=center;fontSize=12;" vertex="1" parent="WX7YUZVSeFiS0MbdlwwC-1">
          <mxGeometry x="-140" y="20" width="41.13" height="50" as="geometry" />
        </mxCell>
        <mxCell id="KDHZRwQ5EwGC6bNFkQ5K-3" value="SYS - EXPRESSO" style="outlineConnect=0;dashed=0;verticalLabelPosition=bottom;verticalAlign=top;align=center;html=1;shape=mxgraph.aws3.elastic_transcoder;fillColor=#f0a30a;aspect=fixed;strokeColor=#BD7000;labelBackgroundColor=none;fontFamily=Verdana;labelPosition=center;fontSize=12;" vertex="1" parent="WX7YUZVSeFiS0MbdlwwC-1">
          <mxGeometry x="-1343.87" y="440" width="41.13" height="50" as="geometry" />
        </mxCell>
        <mxCell id="KDHZRwQ5EwGC6bNFkQ5K-4" value="REP - CONCIWEB" style="html=1;verticalLabelPosition=bottom;align=center;verticalAlign=top;strokeWidth=3;shadow=0;dashed=0;shape=mxgraph.ios7.icons.data;aspect=fixed;labelBackgroundColor=#F1FAEE;fillColor=#000000;strokeColor=#FFFFFF;fontColor=#1D3557;" vertex="1" parent="WX7YUZVSeFiS0MbdlwwC-1">
          <mxGeometry x="-1388.87" y="560" width="41.23" height="50" as="geometry" />
        </mxCell>
        <mxCell id="KDHZRwQ5EwGC6bNFkQ5K-5" value="SYS - GESTOR&lt;br&gt;DE BLOQUEOS" style="outlineConnect=0;dashed=0;verticalLabelPosition=bottom;verticalAlign=top;align=center;html=1;shape=mxgraph.aws3.elastic_transcoder;fillColor=#f0a30a;aspect=fixed;strokeColor=#BD7000;labelBackgroundColor=none;fontFamily=Verdana;labelPosition=center;fontSize=12;" vertex="1" parent="WX7YUZVSeFiS0MbdlwwC-1">
          <mxGeometry x="-650" y="50" width="41.13" height="50" as="geometry" />
        </mxCell>
        <mxCell id="KDHZRwQ5EwGC6bNFkQ5K-22" value="" style="group" vertex="1" connectable="0" parent="WX7YUZVSeFiS0MbdlwwC-1">
          <mxGeometry x="-960" y="415" width="260" height="180" as="geometry" />
        </mxCell>
        <mxCell id="KDHZRwQ5EwGC6bNFkQ5K-21" value="" style="rounded=0;whiteSpace=wrap;html=1;fillColor=#f5f5f5;strokeColor=#666666;fontColor=#333333;" vertex="1" parent="KDHZRwQ5EwGC6bNFkQ5K-22">
          <mxGeometry width="260" height="180" as="geometry" />
        </mxCell>
        <mxCell id="wjRcE3M6JNeXqVUH9-z7-0" value="&lt;font style=&quot;font-size: 12px&quot;&gt;&lt;span style=&quot;font-size: 12px&quot;&gt;SYS - PAMPA&lt;/span&gt;&lt;/font&gt;" style="outlineConnect=0;dashed=0;verticalLabelPosition=bottom;verticalAlign=top;align=center;html=1;shape=mxgraph.aws3.elastic_transcoder;fillColor=#f0a30a;aspect=fixed;strokeColor=#BD7000;labelBackgroundColor=none;fontFamily=Verdana;labelPosition=center;fontSize=12;" parent="KDHZRwQ5EwGC6bNFkQ5K-22" vertex="1">
          <mxGeometry x="41.12999999999988" y="10" width="41.13" height="50" as="geometry" />
        </mxCell>
        <mxCell id="0ebwkZJaevnyOPmftaoM-4" value="REP - ON DEMAND" style="html=1;verticalLabelPosition=bottom;align=center;verticalAlign=top;strokeWidth=3;shadow=0;dashed=0;shape=mxgraph.ios7.icons.data;aspect=fixed;labelBackgroundColor=#F1FAEE;fillColor=#000000;strokeColor=#FFFFFF;fontColor=#1D3557;" parent="KDHZRwQ5EwGC6bNFkQ5K-22" vertex="1">
          <mxGeometry x="169.99999999999977" y="10" width="41.23" height="50" as="geometry" />
        </mxCell>
        <mxCell id="80d_3vzHiP7VrFqBOew0-5" value="SYS - INTRANET&lt;br&gt;COLD" style="outlineConnect=0;dashed=0;verticalLabelPosition=bottom;verticalAlign=top;align=center;html=1;shape=mxgraph.aws3.elastic_transcoder;fillColor=#f0a30a;aspect=fixed;strokeColor=#BD7000;labelBackgroundColor=none;fontFamily=Verdana;labelPosition=center;fontSize=12;" parent="KDHZRwQ5EwGC6bNFkQ5K-22" vertex="1">
          <mxGeometry x="41.13000000000011" y="90" width="41.13" height="50" as="geometry" />
        </mxCell>
        <mxCell id="KDHZRwQ5EwGC6bNFkQ5K-6" value="&lt;div&gt;SYS - BET&lt;/div&gt;" style="outlineConnect=0;dashed=0;verticalLabelPosition=bottom;verticalAlign=top;align=center;html=1;shape=mxgraph.aws3.elastic_transcoder;fillColor=#f0a30a;aspect=fixed;strokeColor=#BD7000;labelBackgroundColor=none;fontFamily=Verdana;labelPosition=center;fontSize=12;" vertex="1" parent="KDHZRwQ5EwGC6bNFkQ5K-22">
          <mxGeometry x="170" y="90" width="41.13" height="50" as="geometry" />
        </mxCell>
        <mxCell id="KDHZRwQ5EwGC6bNFkQ5K-23" value="" style="group" vertex="1" connectable="0" parent="WX7YUZVSeFiS0MbdlwwC-1">
          <mxGeometry x="-650" y="330" width="250" height="95" as="geometry" />
        </mxCell>
        <mxCell id="KDHZRwQ5EwGC6bNFkQ5K-14" value="" style="rounded=0;whiteSpace=wrap;html=1;fillColor=#f5f5f5;strokeColor=#666666;fontColor=#333333;" vertex="1" parent="KDHZRwQ5EwGC6bNFkQ5K-23">
          <mxGeometry width="250" height="95" as="geometry" />
        </mxCell>
        <mxCell id="UR5HrxrVA3GTxyAilWVB-0" value="SYS - 390" style="outlineConnect=0;dashed=0;verticalLabelPosition=bottom;verticalAlign=top;align=center;html=1;shape=mxgraph.aws3.elastic_transcoder;fillColor=#f0a30a;aspect=fixed;strokeColor=#BD7000;labelBackgroundColor=none;fontFamily=Verdana;flipV=0;flipH=1;" parent="KDHZRwQ5EwGC6bNFkQ5K-23" vertex="1">
          <mxGeometry x="31.129999999999995" y="8" width="41.13" height="50" as="geometry" />
        </mxCell>
        <mxCell id="w-DYROOWLKnUQ9SG8VJG-0" value="SYS - SERVICE&lt;br&gt;MANAGER" style="outlineConnect=0;dashed=0;verticalLabelPosition=bottom;verticalAlign=top;align=center;html=1;shape=mxgraph.aws3.elastic_transcoder;fillColor=#f0a30a;aspect=fixed;strokeColor=#BD7000;labelBackgroundColor=none;fontFamily=Verdana;flipV=0;flipH=1;" parent="KDHZRwQ5EwGC6bNFkQ5K-23" vertex="1">
          <mxGeometry x="170" y="8" width="41.13" height="50" as="geometry" />
        </mxCell>
      </root>
    </mxGraphModel>
  </diagram>
</mxfile>
